<svg width="26" height="26" viewBox="0 0 26 26" fill="none" xmlns="http://www.w3.org/2000/svg">
<path d="M14.4266 2.00861L16.1167 7.21024C16.4514 8.24029 17.4113 8.93769 18.4943 8.93769H23.9636C25.4167 8.93769 26.0209 10.7971 24.8453 11.6512L20.4206 14.866C19.5443 15.5026 19.1777 16.631 19.5124 17.6611L21.2025 22.8627C21.6515 24.2447 20.0698 25.3939 18.8942 24.5398L14.4695 21.325C13.5932 20.6884 12.4068 20.6884 11.5305 21.325L7.10577 24.5398C5.9302 25.3939 4.34848 24.2447 4.79751 22.8627L6.48762 17.6611C6.8223 16.631 6.45566 15.5026 5.57944 14.866L1.15468 11.6512C-0.0208964 10.7971 0.583268 8.93769 2.03635 8.93769H7.50566C8.58873 8.93769 9.54862 8.24029 9.8833 7.21024L11.5734 2.00861C12.0224 0.626646 13.9776 0.626647 14.4266 2.00861Z" stroke="#EAEAEA"/>
</svg>
