<svg width="85" height="85" viewBox="0 0 85 85" fill="none" xmlns="http://www.w3.org/2000/svg">
<rect width="85" height="85" fill="#4F99EF"/>
<path d="M20.125 31.8438C20.125 28.825 22.575 26.375 25.5938 26.375H58.4062C61.425 26.375 63.875 28.825 63.875 31.8438V52.1562C63.875 53.6067 63.2988 54.9977 62.2732 56.0232C61.2477 57.0488 59.8567 57.625 58.4062 57.625H25.5938C24.1433 57.625 22.7523 57.0488 21.7268 56.0232C20.7012 54.9977 20.125 53.6067 20.125 52.1562V31.8438ZM25.5938 29.5C24.9721 29.5 24.376 29.7469 23.9365 30.1865C23.4969 30.626 23.25 31.2221 23.25 31.8438V52.1562C23.25 53.45 24.3 54.5 25.5938 54.5H58.4062C59.0279 54.5 59.624 54.2531 60.0635 53.8135C60.5031 53.374 60.75 52.7779 60.75 52.1562V31.8438C60.75 31.2221 60.5031 30.626 60.0635 30.1865C59.624 29.7469 59.0279 29.5 58.4062 29.5H25.5938ZM46.6875 35.75C46.2731 35.75 45.8757 35.9146 45.5826 36.2076C45.2896 36.5007 45.125 36.8981 45.125 37.3125C45.125 37.7269 45.2896 38.1243 45.5826 38.4174C45.8757 38.7104 46.2731 38.875 46.6875 38.875H56.0625C56.4769 38.875 56.8743 38.7104 57.1674 38.4174C57.4604 38.1243 57.625 37.7269 57.625 37.3125C57.625 36.8981 57.4604 36.5007 57.1674 36.2076C56.8743 35.9146 56.4769 35.75 56.0625 35.75H46.6875ZM46.6875 45.125C46.2731 45.125 45.8757 45.2896 45.5826 45.5826C45.2896 45.8757 45.125 46.2731 45.125 46.6875C45.125 47.1019 45.2896 47.4993 45.5826 47.7924C45.8757 48.0854 46.2731 48.25 46.6875 48.25H56.0625C56.4769 48.25 56.8743 48.0854 57.1674 47.7924C57.4604 47.4993 57.625 47.1019 57.625 46.6875C57.625 46.2731 57.4604 45.8757 57.1674 45.5826C56.8743 45.2896 56.4769 45.125 56.0625 45.125H46.6875ZM33.4406 41.1063C33.9975 41.1063 34.5489 40.9966 35.0634 40.7835C35.5779 40.5703 36.0454 40.258 36.4392 39.8642C36.833 39.4704 37.1453 39.0029 37.3585 38.4884C37.5716 37.9739 37.6813 37.4225 37.6813 36.8656C37.6813 36.3087 37.5716 35.7573 37.3585 35.2428C37.1453 34.7283 36.833 34.2608 36.4392 33.8671C36.0454 33.4733 35.5779 33.1609 35.0634 32.9478C34.5489 32.7347 33.9975 32.625 33.4406 32.625C32.3159 32.625 31.2373 33.0718 30.442 33.8671C29.6468 34.6623 29.2 35.7409 29.2 36.8656C29.2 37.9903 29.6468 39.0689 30.442 39.8642C31.2373 40.6595 32.3159 41.1063 33.4406 41.1063V41.1063ZM29.0563 43.225C28.3451 43.225 27.6632 43.5075 27.1603 44.0103C26.6575 44.5132 26.375 45.1951 26.375 45.9062C26.3751 47.0701 26.7642 48.2004 27.4805 49.1177C28.1967 50.035 29.1991 50.6865 30.3281 50.9687L30.4937 51.0125C32.4312 51.4969 34.4531 51.4969 36.3875 51.0125L36.5562 50.9719C37.6853 50.6896 38.6876 50.0381 39.4039 49.1208C40.1202 48.2035 40.5093 47.0732 40.5094 45.9094C40.5098 45.557 40.4407 45.208 40.3062 44.8823C40.1716 44.5567 39.9742 44.2607 39.7252 44.0114C39.4761 43.7621 39.1804 43.5643 38.8549 43.4294C38.5294 43.2945 38.1805 43.225 37.8281 43.225H29.0563Z" fill="white"/>
</svg>
