<svg width="22" height="15" viewBox="0 0 22 15" fill="none" xmlns="http://www.w3.org/2000/svg">
<path d="M21.2625 13.125V1.875C21.2625 0.8375 20.425 0 19.3875 0H1.875C0.8375 0 0 0.8375 0 1.875V13.125C0 14.1625 0.8375 15 1.875 15H19.3875C20.425 15 21.2625 14.1625 21.2625 13.125ZM19.625 1.7375C20.0375 2.15 19.8125 2.575 19.5875 2.7875L14.5125 7.4375L19.3875 12.5125C19.5375 12.6875 19.6375 12.9625 19.4625 13.15C19.3 13.35 18.925 13.3375 18.7625 13.2125L13.3 8.55L10.625 10.9875L7.9625 8.55L2.5 13.2125C2.3375 13.3375 1.9625 13.35 1.8 13.15C1.625 12.9625 1.725 12.6875 1.875 12.5125L6.75 7.4375L1.675 2.7875C1.45 2.575 1.225 2.15 1.6375 1.7375C2.05 1.325 2.475 1.525 2.825 1.825L10.625 8.125L18.4375 1.825C18.7875 1.525 19.2125 1.325 19.625 1.7375V1.7375Z" fill="#4F99EF"/>
</svg>
