<svg width="18" height="18" viewBox="0 0 18 18" fill="none" xmlns="http://www.w3.org/2000/svg">
<path d="M0.839093 2.84417L3.16551 0.519903C3.32962 0.355071 3.52468 0.224288 3.73948 0.135067C3.95428 0.0458453 4.1846 -5.57467e-05 4.41719 5.08096e-08C4.89122 5.08096e-08 5.33684 0.18568 5.67106 0.519903L8.17442 3.0233C8.33925 3.18741 8.47003 3.38247 8.55925 3.59728C8.64847 3.81208 8.69437 4.0424 8.69431 4.275C8.69431 4.74903 8.50864 5.19466 8.17442 5.52888L6.34386 7.35947C6.77235 8.30394 7.3681 9.16315 8.10233 9.89563C8.83473 10.6317 9.69385 11.2296 10.6385 11.6607L12.469 9.8301C12.6331 9.66527 12.8282 9.53448 13.043 9.44526C13.2578 9.35604 13.4881 9.31014 13.7207 9.31019C14.1947 9.31019 14.6403 9.49587 14.9746 9.8301L17.4801 12.3313C17.6451 12.4957 17.776 12.6911 17.8653 12.9063C17.9545 13.1215 18.0003 13.3522 18 13.5852C18 14.0592 17.8143 14.5049 17.4801 14.8391L15.1581 17.1612C14.625 17.6964 13.8889 18 13.1331 18C12.9736 18 12.8207 17.9869 12.67 17.9607C9.72537 17.4757 6.80478 15.9095 4.44778 13.5546C2.09296 11.2019 0.528903 8.2835 0.0374054 5.3301C-0.111136 4.42791 0.188132 3.49951 0.839093 2.84417V2.84417Z" fill="#4F99EF"/>
</svg>
