<svg width="14" height="15" viewBox="0 0 14 15" fill="none" xmlns="http://www.w3.org/2000/svg">
<path d="M13.2825 12.9653L10.7325 10.4228C11.5552 9.37466 12.0017 8.08031 12 6.74782C12 5.56113 11.6481 4.40109 10.9888 3.4144C10.3295 2.4277 9.39246 1.65867 8.2961 1.20454C7.19975 0.750418 5.99335 0.631598 4.82946 0.863109C3.66558 1.09462 2.59648 1.66606 1.75736 2.50518C0.918247 3.3443 0.346802 4.41339 0.115291 5.57728C-0.11622 6.74117 0.00259969 7.94756 0.456725 9.04392C0.910851 10.1403 1.67989 11.0773 2.66658 11.7366C3.65328 12.3959 4.81331 12.7478 6 12.7478C7.33249 12.7495 8.62684 12.3031 9.675 11.4803L12.2175 14.0303C12.2872 14.1006 12.3702 14.1564 12.4616 14.1945C12.553 14.2326 12.651 14.2522 12.75 14.2522C12.849 14.2522 12.947 14.2326 13.0384 14.1945C13.1298 14.1564 13.2128 14.1006 13.2825 14.0303C13.3528 13.9606 13.4086 13.8776 13.4467 13.7863C13.4847 13.6949 13.5044 13.5968 13.5044 13.4978C13.5044 13.3988 13.4847 13.3008 13.4467 13.2094C13.4086 13.118 13.3528 13.035 13.2825 12.9653ZM1.5 6.74782C1.5 5.8578 1.76392 4.98778 2.25839 4.24776C2.75286 3.50773 3.45566 2.93096 4.27793 2.59036C5.10019 2.24977 6.00499 2.16065 6.87791 2.33429C7.75082 2.50792 8.55265 2.9365 9.18198 3.56584C9.81132 4.19518 10.2399 4.997 10.4135 5.86991C10.5872 6.74283 10.4981 7.64763 10.1575 8.4699C9.81687 9.29216 9.24009 9.99497 8.50007 10.4894C7.76005 10.9839 6.89002 11.2478 6 11.2478C4.80653 11.2478 3.66194 10.7737 2.81802 9.9298C1.97411 9.08589 1.5 7.9413 1.5 6.74782Z" fill="#A7A7A7"/>
</svg>
