<svg width="48" height="48" viewBox="0 0 48 48" fill="none" xmlns="http://www.w3.org/2000/svg">
<path d="M24 4C18.7166 4.06738 13.6686 6.19615 9.93237 9.93237C6.19615 13.6686 4.06738 18.7166 4 24C4.0247 27.0778 4.75944 30.1084 6.14702 32.8558C7.53461 35.6033 9.53758 37.9933 12 39.84V40H12.2C15.5864 42.595 19.7337 44.0013 24 44.0013C28.2663 44.0013 32.4136 42.595 35.8 40H36V39.84C38.4624 37.9933 40.4654 35.6033 41.853 32.8558C43.2406 30.1084 43.9753 27.0778 44 24C43.9326 18.7166 41.8039 13.6686 38.0676 9.93237C34.3314 6.19615 29.2834 4.06738 24 4ZM16.14 37.86C16.432 36.5229 17.1723 35.3258 18.2382 34.4673C19.304 33.6087 20.6314 33.1404 22 33.14H26C27.3686 33.1404 28.696 33.6087 29.7618 34.4673C30.8277 35.3258 31.568 36.5229 31.86 37.86C29.4777 39.2616 26.764 40.0007 24 40.0007C21.236 40.0007 18.5223 39.2616 16.14 37.86ZM35.22 35.28C34.4593 33.4619 33.1782 31.9091 31.5378 30.8167C29.8975 29.7243 27.9708 29.141 26 29.14H22C20.0292 29.141 18.1025 29.7243 16.4622 30.8167C14.8218 31.9091 13.5407 33.4619 12.78 35.28C11.2813 33.806 10.0878 32.0511 9.26763 30.1156C8.44745 28.1801 8.0167 26.102 8 24C8.05188 19.7727 9.75424 15.7331 12.7437 12.7437C15.7331 9.75424 19.7727 8.05188 24 8C28.2273 8.05188 32.2669 9.75424 35.2563 12.7437C38.2458 15.7331 39.9481 19.7727 40 24C39.9833 26.102 39.5525 28.1801 38.7324 30.1156C37.9122 32.0511 36.7187 33.806 35.22 35.28Z" fill="#4F99EF"/>
<path d="M24 12C22.9427 11.9754 21.8914 12.1654 20.9096 12.5588C19.9279 12.9521 19.0361 13.5405 18.2883 14.2883C17.5405 15.0361 16.9521 15.9279 16.5588 16.9096C16.1654 17.8914 15.9754 18.9427 16 20C15.9754 21.0573 16.1654 22.1086 16.5588 23.0904C16.9521 24.0721 17.5405 24.9638 18.2883 25.7117C19.0361 26.4595 19.9279 27.0479 20.9096 27.4412C21.8914 27.8345 22.9427 28.0246 24 28C25.0573 28.0246 26.1086 27.8345 27.0904 27.4412C28.0721 27.0479 28.9638 26.4595 29.7117 25.7117C30.4595 24.9638 31.0479 24.0721 31.4412 23.0904C31.8345 22.1086 32.0246 21.0573 32 20C32.0246 18.9427 31.8345 17.8914 31.4412 16.9096C31.0479 15.9279 30.4595 15.0361 29.7117 14.2883C28.9638 13.5405 28.0721 12.9521 27.0904 12.5588C26.1086 12.1654 25.0573 11.9754 24 12ZM24 24C23.4679 24.0257 22.9363 23.9399 22.4393 23.7479C21.9424 23.556 21.4911 23.2623 21.1144 22.8856C20.7377 22.5089 20.444 22.0576 20.252 21.5606C20.0601 21.0637 19.9743 20.5321 20 20C19.9743 19.4679 20.0601 18.9363 20.252 18.4393C20.444 17.9424 20.7377 17.4911 21.1144 17.1144C21.4911 16.7377 21.9424 16.444 22.4393 16.252C22.9363 16.0601 23.4679 15.9743 24 16C24.5321 15.9743 25.0637 16.0601 25.5606 16.252C26.0576 16.444 26.5089 16.7377 26.8856 17.1144C27.2623 17.4911 27.556 17.9424 27.7479 18.4393C27.9399 18.9363 28.0257 19.4679 28 20C28.0257 20.5321 27.9399 21.0637 27.7479 21.5606C27.556 22.0576 27.2623 22.5089 26.8856 22.8856C26.5089 23.2623 26.0576 23.556 25.5606 23.7479C25.0637 23.9399 24.5321 24.0257 24 24Z" fill="#4F99EF"/>
</svg>
